<svg version="1.1" xmlns="http://www.w3.org/2000/svg" viewBox="0 0 225.39856308752678 219.0986340188599" width="676.1956892625803" height="657.2959020565797" filter="invert(93%) hue-rotate(180deg)"><!-- svg-source:excalidraw --><metadata></metadata><defs><style class="style-fonts">
      </style></defs><g stroke-linecap="round" transform="translate(10 10) rotate(0 102.69928154376339 99.54931700942996)"><path d="M32 0 C59.51 1.34, 92.95 -0.74, 173.4 0 C192.28 2.35, 202.57 13.26, 205.4 32 C203.01 81.13, 202.94 126.28, 205.4 167.1 C203.92 191.22, 191.74 200.68, 173.4 199.1 C126.19 197.74, 78.7 200.26, 32 199.1 C8.28 199.35, -0.48 187.85, 0 167.1 C-3.01 128.21, -2.06 92.25, 0 32 C0.81 10.3, 13.89 -2.36, 32 0" stroke="none" stroke-width="0" fill="#1e1e1e"></path><path d="M32 0 C80.71 2.22, 128.82 1.06, 173.4 0 M32 0 C78.21 0.36, 124.01 1.27, 173.4 0 M173.4 0 C193.77 0.8, 207.27 9.1, 205.4 32 M173.4 0 C194.66 0.88, 206.45 10.95, 205.4 32 M205.4 32 C203.77 73.74, 203.16 116.4, 205.4 167.1 M205.4 32 C205.23 81.42, 206.64 132.35, 205.4 167.1 M205.4 167.1 C206.31 189.57, 193.48 197.7, 173.4 199.1 M205.4 167.1 C207.61 187.47, 193.7 199.18, 173.4 199.1 M173.4 199.1 C133.08 201.63, 95.77 201.64, 32 199.1 M173.4 199.1 C120.47 197.62, 69.13 198.03, 32 199.1 M32 199.1 C12.28 200.71, 1.78 186.56, 0 167.1 M32 199.1 C12.56 199.64, -0.98 187.76, 0 167.1 M0 167.1 C-1.67 129.02, -1.38 90.51, 0 32 M0 167.1 C-0.49 115.99, -0.98 65.06, 0 32 M0 32 C-1.44 9.09, 8.89 0.9, 32 0 M0 32 C1.85 12.82, 8.67 0.33, 32 0" stroke="#1e1e1e" stroke-width="2" fill="none"></path></g><g stroke-linecap="round" transform="translate(32.892225009426966 44.474336299297875) rotate(0 21.62044884810416 9.103346883412257)"><path d="M4.55 0 C15.47 2.85, 19.03 2.76, 38.69 0 C39.37 -3.55, 42.1 1.31, 43.24 4.55 C44.26 5.89, 43.99 11.15, 43.24 13.66 C46.33 14.69, 39.09 15.59, 38.69 18.21 C24.34 15.56, 15.32 16, 4.55 18.21 C4.91 20.86, -2.7 13.26, 0 13.66 C0.63 11.78, 1.31 9.55, 0 4.55 C2.13 -1.01, 4.25 2.9, 4.55 0" stroke="none" stroke-width="0" fill="#9c36b5"></path><path d="M4.55 0 C17.76 -0.67, 31.56 -1.95, 38.69 0 M4.55 0 C13.72 0.1, 25.2 -0.36, 38.69 0 M38.69 0 C40.45 -0.69, 41.73 2.47, 43.24 4.55 M38.69 0 C40.93 2.03, 44.39 -0.38, 43.24 4.55 M43.24 4.55 C43.79 6.08, 42.85 9.97, 43.24 13.66 M43.24 4.55 C43.17 6.76, 43.06 8.42, 43.24 13.66 M43.24 13.66 C42.92 16.64, 40.95 16.66, 38.69 18.21 M43.24 13.66 C45.42 15.15, 43.79 20.12, 38.69 18.21 M38.69 18.21 C27.92 17.24, 21.48 20.03, 4.55 18.21 M38.69 18.21 C27.92 19.1, 19.17 17.55, 4.55 18.21 M4.55 18.21 C-0.15 18.12, -1.28 17.48, 0 13.66 M4.55 18.21 C2.66 19.14, -0.19 16.99, 0 13.66 M0 13.66 C0.6 11.1, 0.2 6.72, 0 4.55 M0 13.66 C-0.01 10.31, 0.15 7.38, 0 4.55 M0 4.55 C1.26 1.11, 1.73 -1.76, 4.55 0 M0 4.55 C-0.11 1.46, 1.46 1.02, 4.55 0" stroke="#9c36b5" stroke-width="4" fill="none"></path></g><g stroke-linecap="round" transform="translate(88.02965330634629 44.23307105545905) rotate(0 21.62044884810416 9.103346883412257)"><path d="M4.55 0 C14.82 0.94, 27.5 1.09, 38.69 0 C42.49 -0.47, 44.47 3.78, 43.24 4.55 C44.79 9.31, 43.27 9.93, 43.24 13.66 C45.62 18.09, 43.34 16.82, 38.69 18.21 C26.03 16.45, 10.97 20.39, 4.55 18.21 C4.35 19.41, 3.18 15.68, 0 13.66 C-0.11 9.83, -0.71 10.16, 0 4.55 C-2.1 -0.49, 4.39 -1.11, 4.55 0" stroke="none" stroke-width="0" fill="#2f9e44"></path><path d="M4.55 0 C13.15 -0.22, 20.05 1, 38.69 0 M4.55 0 C13.79 -0.14, 21.15 0.44, 38.69 0 M38.69 0 C42.15 1.58, 41.8 -0.23, 43.24 4.55 M38.69 0 C42.64 -1.47, 42.99 0.22, 43.24 4.55 M43.24 4.55 C43.09 6.73, 43.42 10.34, 43.24 13.66 M43.24 4.55 C43.37 7.39, 43.41 10.36, 43.24 13.66 M43.24 13.66 C44.39 17.52, 40.89 16.5, 38.69 18.21 M43.24 13.66 C44.58 16.75, 43.19 16.18, 38.69 18.21 M38.69 18.21 C26.84 18.36, 11.79 17.22, 4.55 18.21 M38.69 18.21 C31.35 18.77, 22.46 18.73, 4.55 18.21 M4.55 18.21 C2.84 16.9, -1.49 18.09, 0 13.66 M4.55 18.21 C3.21 19.27, 0.6 18.87, 0 13.66 M0 13.66 C0.09 11.25, -0.77 8.04, 0 4.55 M0 13.66 C0.41 10.98, -0.21 8.49, 0 4.55 M0 4.55 C1.94 0.83, 2 -1.18, 4.55 0 M0 4.55 C0.06 2.73, 1.35 1.76, 4.55 0" stroke="#2f9e44" stroke-width="4" fill="none"></path></g><g stroke-linecap="round" transform="translate(147.33944892482964 43.23319357133573) rotate(0 21.62044884810416 9.103346883412257)"><path d="M4.55 0 C14.52 2.06, 23.96 1.74, 38.69 0 C41.77 3.04, 42.72 4.1, 43.24 4.55 C44.09 9.32, 44.68 12.46, 43.24 13.66 C41.83 16.05, 39.1 14.67, 38.69 18.21 C23.65 17.85, 9.03 19.13, 4.55 18.21 C-1.94 21.25, -1.14 13.56, 0 13.66 C0.65 10.55, -0.99 6.56, 0 4.55 C-0.38 0.5, 0.38 -2.97, 4.55 0" stroke="none" stroke-width="0" fill="#9c36b5"></path><path d="M4.55 0 C17.61 1.69, 29.4 -1.2, 38.69 0 M4.55 0 C16.11 -0.26, 27.59 0.5, 38.69 0 M38.69 0 C42.98 1.95, 43.52 3.21, 43.24 4.55 M38.69 0 C43.76 -0.18, 41.52 3.04, 43.24 4.55 M43.24 4.55 C43.88 8.4, 43.97 10.68, 43.24 13.66 M43.24 4.55 C43.53 6.87, 43.57 8.76, 43.24 13.66 M43.24 13.66 C42.11 18.61, 42.45 18.27, 38.69 18.21 M43.24 13.66 C40.98 15.91, 43.04 16.87, 38.69 18.21 M38.69 18.21 C29.02 18.96, 21.36 18.53, 4.55 18.21 M38.69 18.21 C29.39 17.93, 20.16 18.73, 4.55 18.21 M4.55 18.21 C3.24 17.53, -0.46 15.04, 0 13.66 M4.55 18.21 C2.53 19.01, -2.26 17.11, 0 13.66 M0 13.66 C0.74 10.15, 0.72 7.77, 0 4.55 M0 13.66 C0.02 10.38, 0.05 6.52, 0 4.55 M0 4.55 C1.01 -0.2, 2.87 -1.24, 4.55 0 M0 4.55 C2.15 3.59, 0.41 -1.18, 4.55 0" stroke="#9c36b5" stroke-width="4" fill="none"></path></g><g stroke-linecap="round" transform="translate(33.68565375847925 74.09503017915563) rotate(0 21.62044884810416 9.103346883412257)"><path d="M4.55 0 C14.81 -1.86, 26.46 2.31, 38.69 0 C42.16 0.65, 45.14 4.99, 43.24 4.55 C43.64 7.67, 41.98 8.27, 43.24 13.66 C41.96 17, 44.28 14.87, 38.69 18.21 C33.96 16.56, 21.96 16.35, 4.55 18.21 C3.48 14.85, 3.36 14.91, 0 13.66 C-0.27 10.17, -0.44 8.21, 0 4.55 C-1.05 0.04, 3.37 -1.91, 4.55 0" stroke="none" stroke-width="0" fill="#1971c2"></path><path d="M4.55 0 C14.9 -0.36, 27.18 -0.63, 38.69 0 M4.55 0 C13.37 -0.92, 23.62 0.69, 38.69 0 M38.69 0 C40.27 -0.93, 42.1 0.01, 43.24 4.55 M38.69 0 C41.31 1.13, 42.27 2.69, 43.24 4.55 M43.24 4.55 C43.26 7.12, 42.75 9.8, 43.24 13.66 M43.24 4.55 C43.6 6.96, 43.28 9.08, 43.24 13.66 M43.24 13.66 C43.71 16.28, 42.03 19.91, 38.69 18.21 M43.24 13.66 C42.12 16.21, 40.46 19.89, 38.69 18.21 M38.69 18.21 C27 19.49, 11.9 17.69, 4.55 18.21 M38.69 18.21 C27.38 17.24, 17.53 18.1, 4.55 18.21 M4.55 18.21 C-0.03 16.5, -1.38 16.98, 0 13.66 M4.55 18.21 C3.24 17.36, 0.07 18.38, 0 13.66 M0 13.66 C0.2 10.22, -0.1 7.69, 0 4.55 M0 13.66 C-0.32 11.32, 0.1 9, 0 4.55 M0 4.55 C-1.34 0.42, 2.86 -1.44, 4.55 0 M0 4.55 C-0.51 -0.4, 3.4 0.93, 4.55 0" stroke="#1971c2" stroke-width="4" fill="none"></path></g><g stroke-linecap="round" transform="translate(33.06508239449818 102.30172394598026) rotate(0 21.62044884810416 9.103346883412257)"><path d="M4.55 0 C11.99 0.49, 18.32 3.03, 38.69 0 C43.59 -3.1, 43.13 1.2, 43.24 4.55 C44.4 6.59, 42.66 8.79, 43.24 13.66 C43.74 13.79, 40.16 19.92, 38.69 18.21 C30.69 14.87, 23.52 19.92, 4.55 18.21 C0.7 19.67, 2.02 18.5, 0 13.66 C0.84 10.96, 1.17 7.71, 0 4.55 C3.14 -0.58, -1.33 3.24, 4.55 0" stroke="none" stroke-width="0" fill="#9c36b5"></path><path d="M4.55 0 C13.81 1.72, 25.19 0.32, 38.69 0 M4.55 0 C16.02 0.31, 29.19 -0.65, 38.69 0 M38.69 0 C40.21 1.26, 45.1 1.77, 43.24 4.55 M38.69 0 C43.55 -1.45, 44.59 3.81, 43.24 4.55 M43.24 4.55 C42.87 7.49, 42.94 10.43, 43.24 13.66 M43.24 4.55 C43.3 7.53, 42.82 10.21, 43.24 13.66 M43.24 13.66 C43.52 15.89, 39.84 16.29, 38.69 18.21 M43.24 13.66 C41.39 15.37, 41.06 16.71, 38.69 18.21 M38.69 18.21 C26.57 18.13, 12.63 19.12, 4.55 18.21 M38.69 18.21 C25.56 17, 13.68 17.02, 4.55 18.21 M4.55 18.21 C1.51 20.17, -1.92 15.44, 0 13.66 M4.55 18.21 C0.41 16.32, 0.78 16.95, 0 13.66 M0 13.66 C-0.48 10.71, 0.75 10.22, 0 4.55 M0 13.66 C-0.39 10.22, -0.2 6.88, 0 4.55 M0 4.55 C0.04 3.15, 3.36 -0.41, 4.55 0 M0 4.55 C-1.3 0.73, 0.49 -1.42, 4.55 0" stroke="#9c36b5" stroke-width="4" fill="none"></path></g><g stroke-linecap="round" transform="translate(33.2031232708016 130.12911159266264) rotate(0 21.62044884810416 9.103346883412257)"><path d="M4.55 0 C16.22 -0.34, 25.14 -0.83, 38.69 0 C42.09 1.92, 44.55 2.25, 43.24 4.55 C42.29 7.97, 44.66 12.58, 43.24 13.66 C46.64 16.49, 38.59 19.26, 38.69 18.21 C26.75 15.63, 23.86 18.44, 4.55 18.21 C-1.85 16.7, -0.36 17.64, 0 13.66 C-0.52 11.73, -0.62 10.31, 0 4.55 C-3.25 2.69, 3.11 -1.69, 4.55 0" stroke="none" stroke-width="0" fill="#9c36b5"></path><path d="M4.55 0 C15.81 -0.55, 25.96 1.03, 38.69 0 M4.55 0 C16.72 0.53, 28.93 0.73, 38.69 0 M38.69 0 C42.92 1.74, 42.07 -0.06, 43.24 4.55 M38.69 0 C43.8 2.17, 44.65 2.39, 43.24 4.55 M43.24 4.55 C43.8 7.33, 43.53 7.47, 43.24 13.66 M43.24 4.55 C43.44 7.57, 43.04 11.59, 43.24 13.66 M43.24 13.66 C41.73 17.58, 42.12 19.19, 38.69 18.21 M43.24 13.66 C43.98 18.87, 40.29 18.92, 38.69 18.21 M38.69 18.21 C29.66 18.04, 20.18 19.35, 4.55 18.21 M38.69 18.21 C28.43 18.59, 15.86 18.09, 4.55 18.21 M4.55 18.21 C0.39 17.75, -0.73 16.92, 0 13.66 M4.55 18.21 C0.44 19.72, 0.58 15.35, 0 13.66 M0 13.66 C0.07 10.99, -0.37 8.27, 0 4.55 M0 13.66 C0.36 10.65, -0.16 8.81, 0 4.55 M0 4.55 C-0.83 0.34, -0.45 0.05, 4.55 0 M0 4.55 C0.97 -0.39, 2.53 1.72, 4.55 0" stroke="#9c36b5" stroke-width="4" fill="none"></path></g><g stroke-linecap="round" transform="translate(88.71985768786317 72.61262220735466) rotate(0 21.62044884810416 9.103346883412257)"><path d="M4.55 0 C16.38 3.72, 28.93 -2.53, 38.69 0 C43.62 -3.25, 43.3 -0.82, 43.24 4.55 C42.47 9.25, 41.65 9.78, 43.24 13.66 C42.56 15.09, 42.16 18.94, 38.69 18.21 C27.03 18.17, 18.55 16.57, 4.55 18.21 C0.69 20.03, 2.7 13.27, 0 13.66 C0.6 13.11, -1.32 10.35, 0 4.55 C-1.54 3.54, 4.09 -1.56, 4.55 0" stroke="none" stroke-width="0" fill="#9c36b5"></path><path d="M4.55 0 C15.34 -0.35, 27.06 1.09, 38.69 0 M4.55 0 C16.79 -0.62, 26.87 -0.1, 38.69 0 M38.69 0 C43.3 1.83, 45.13 1.4, 43.24 4.55 M38.69 0 C39.72 0.67, 42.13 0.12, 43.24 4.55 M43.24 4.55 C43.75 7, 42.3 8.82, 43.24 13.66 M43.24 4.55 C42.84 7.31, 43.08 9.94, 43.24 13.66 M43.24 13.66 C42.3 18.27, 39.92 18.86, 38.69 18.21 M43.24 13.66 C44.26 15.61, 41.82 16.88, 38.69 18.21 M38.69 18.21 C29.35 19.73, 18.54 20.13, 4.55 18.21 M38.69 18.21 C29.89 19.33, 21.26 18.92, 4.55 18.21 M4.55 18.21 C1.33 19.12, -0.27 16.84, 0 13.66 M4.55 18.21 C0.16 20.4, -1.21 16.78, 0 13.66 M0 13.66 C-0.81 10.36, -0.27 8.03, 0 4.55 M0 13.66 C-0.01 9.68, 0.07 6.26, 0 4.55 M0 4.55 C-0.69 1.72, -0.05 1.83, 4.55 0 M0 4.55 C2.18 2.88, 0.11 -1.47, 4.55 0" stroke="#9c36b5" stroke-width="4" fill="none"></path></g><g stroke-linecap="round" transform="translate(146.89173494592 71.23343860308933) rotate(0 21.62044884810416 9.103346883412257)"><path d="M4.55 0 C15.96 -3.8, 23.54 -0.04, 38.69 0 C40.46 0.75, 43.4 3.92, 43.24 4.55 C42.48 7.42, 42.93 13.27, 43.24 13.66 C40.81 17.27, 43.12 19.67, 38.69 18.21 C31.68 18.32, 24.57 17.78, 4.55 18.21 C3.96 21.09, -0.17 16.16, 0 13.66 C1.2 11.61, 0.97 8.19, 0 4.55 C-0.28 1.63, -1.59 2.34, 4.55 0" stroke="none" stroke-width="0" fill="#9c36b5"></path><path d="M4.55 0 C16.93 -0.13, 28.98 0.61, 38.69 0 M4.55 0 C15.41 -0.29, 26.53 -0.49, 38.69 0 M38.69 0 C40.5 -0.31, 44.22 -0.3, 43.24 4.55 M38.69 0 C41.02 1.2, 43.37 1.3, 43.24 4.55 M43.24 4.55 C43.73 7.67, 43.79 10.39, 43.24 13.66 M43.24 4.55 C43.09 7.35, 42.76 9.83, 43.24 13.66 M43.24 13.66 C44.54 15.33, 43.13 19.86, 38.69 18.21 M43.24 13.66 C41.33 14.99, 41.46 20.44, 38.69 18.21 M38.69 18.21 C31.42 19.4, 21.27 18.45, 4.55 18.21 M38.69 18.21 C30.18 18.75, 21.14 19.35, 4.55 18.21 M4.55 18.21 C2.46 19.62, -0.08 18.35, 0 13.66 M4.55 18.21 C2.59 19.97, 2.2 18.1, 0 13.66 M0 13.66 C-0.92 10.56, 0.58 9.36, 0 4.55 M0 13.66 C-0.35 10.9, -0.47 7.62, 0 4.55 M0 4.55 C-1.15 3.49, 1.6 0.67, 4.55 0 M0 4.55 C-1.44 2.12, 3.48 1.74, 4.55 0" stroke="#9c36b5" stroke-width="4" fill="none"></path></g><g stroke-linecap="round" transform="translate(147.7883880625077 98.30221400948733) rotate(0 21.62044884810416 9.103346883412257)"><path d="M4.55 0 C17.89 -0.18, 27.57 -0.68, 38.69 0 C42.97 0.35, 41.65 4.17, 43.24 4.55 C43.72 8.29, 44.09 11.26, 43.24 13.66 C41.47 17.56, 40.67 16.76, 38.69 18.21 C29.84 17.08, 22.95 21.46, 4.55 18.21 C-0.1 16.35, 1.74 14.13, 0 13.66 C0.45 11.94, -1.02 5.94, 0 4.55 C-2.84 3.63, -1.25 1.03, 4.55 0" stroke="none" stroke-width="0" fill="#e03131"></path><path d="M4.55 0 C17.14 0.82, 29.23 1.28, 38.69 0 M4.55 0 C16.84 0.01, 29.74 0.78, 38.69 0 M38.69 0 C41.8 1.18, 41.72 1.36, 43.24 4.55 M38.69 0 C41.8 -1.99, 44.74 0.95, 43.24 4.55 M43.24 4.55 C43.73 7.15, 42.47 11.02, 43.24 13.66 M43.24 4.55 C43.43 6.41, 43.18 9.04, 43.24 13.66 M43.24 13.66 C42.33 18.63, 40.57 19.14, 38.69 18.21 M43.24 13.66 C42.26 16.62, 43.11 17.15, 38.69 18.21 M38.69 18.21 C32.66 16.42, 25.85 18.5, 4.55 18.21 M38.69 18.21 C31.17 18.95, 24.24 19.12, 4.55 18.21 M4.55 18.21 C2.23 18.36, -0.76 17.66, 0 13.66 M4.55 18.21 C2.87 19.55, 0.87 15.09, 0 13.66 M0 13.66 C0.75 11.49, 0.22 8.44, 0 4.55 M0 13.66 C-0.39 10.12, 0.01 6.89, 0 4.55 M0 4.55 C-1.92 1.98, 1.89 -1.44, 4.55 0 M0 4.55 C-0.15 1.58, -0.62 -0.85, 4.55 0" stroke="#e03131" stroke-width="4" fill="none"></path></g><g stroke-linecap="round" transform="translate(88.75467419663119 101.09539772678602) rotate(0 21.62044884810416 9.103346883412257)"><path d="M4.55 0 C10.43 3.25, 22.81 0.21, 38.69 0 C38.88 1.58, 45.53 4.66, 43.24 4.55 C43.65 6.77, 44.57 10.68, 43.24 13.66 C42.59 16.74, 42.17 15.51, 38.69 18.21 C22.7 18.19, 14.25 15.42, 4.55 18.21 C-0.17 16.15, -1.11 15.04, 0 13.66 C0.41 10.18, 1.19 10.11, 0 4.55 C0.1 3.96, 2.63 0.39, 4.55 0" stroke="none" stroke-width="0" fill="#9c36b5"></path><path d="M4.55 0 C12.45 -0.46, 23.58 -0.75, 38.69 0 M4.55 0 C13.69 0.94, 20.65 0.59, 38.69 0 M38.69 0 C43.7 -1.11, 41.96 -0.06, 43.24 4.55 M38.69 0 C43.07 -1.77, 43.9 3.6, 43.24 4.55 M43.24 4.55 C42.55 7.26, 43.57 10.94, 43.24 13.66 M43.24 4.55 C43.02 6.79, 43.62 9.82, 43.24 13.66 M43.24 13.66 C44.95 15.42, 41.38 20.02, 38.69 18.21 M43.24 13.66 C41.78 15.43, 40.17 15.92, 38.69 18.21 M38.69 18.21 C30.42 17.88, 17.08 19.42, 4.55 18.21 M38.69 18.21 C27.41 18.39, 13.96 19.09, 4.55 18.21 M4.55 18.21 C2.23 16.26, -0.99 15.52, 0 13.66 M4.55 18.21 C2.37 16, 0.95 18.24, 0 13.66 M0 13.66 C-0.66 9.76, 0.95 7.84, 0 4.55 M0 13.66 C-0.31 10.3, 0.32 7.54, 0 4.55 M0 4.55 C1.26 1.76, 2.44 0.91, 4.55 0 M0 4.55 C0.94 2.61, 1.21 2.01, 4.55 0" stroke="#9c36b5" stroke-width="4" fill="none"></path></g><g stroke-linecap="round" transform="translate(32.37610317174972 160.02588722512712) rotate(0 21.62044884810416 9.103346883412257)"><path d="M4.55 0 C16.85 -1.32, 27.31 2.67, 38.69 0 C41.56 -3.16, 46.32 -0.05, 43.24 4.55 C44.04 9.68, 43.26 10.2, 43.24 13.66 C41.4 17.14, 42.45 18.63, 38.69 18.21 C28.15 20.11, 15.14 15.15, 4.55 18.21 C-0.31 18.86, 1.45 15.13, 0 13.66 C-0.47 9.86, 0.45 8.04, 0 4.55 C2.47 3.25, 1.29 -3.49, 4.55 0" stroke="none" stroke-width="0" fill="#9c36b5"></path><path d="M4.55 0 C13.09 -1.49, 23.61 0.37, 38.69 0 M4.55 0 C15.47 0.33, 24.73 0, 38.69 0 M38.69 0 C40.49 -1.89, 43.03 2.54, 43.24 4.55 M38.69 0 C43.05 -1.56, 43.51 0.48, 43.24 4.55 M43.24 4.55 C43.45 8.27, 43.19 10.1, 43.24 13.66 M43.24 4.55 C43.39 7.96, 43.23 11.49, 43.24 13.66 M43.24 13.66 C44.46 17.25, 42.88 19.09, 38.69 18.21 M43.24 13.66 C41.56 17.98, 42.44 18.52, 38.69 18.21 M38.69 18.21 C29.5 18.33, 17.31 18.3, 4.55 18.21 M38.69 18.21 C28.38 17.93, 18.25 18.76, 4.55 18.21 M4.55 18.21 C1.27 17.63, 0.19 15.41, 0 13.66 M4.55 18.21 C1.19 18.41, 2.06 17.11, 0 13.66 M0 13.66 C0.52 10.97, -0.1 7.37, 0 4.55 M0 13.66 C0.45 11.49, -0.16 8.63, 0 4.55 M0 4.55 C-0.36 2.11, 2.93 1.7, 4.55 0 M0 4.55 C-0.11 1.31, 0.5 2.02, 4.55 0" stroke="#9c36b5" stroke-width="4" fill="none"></path></g><g stroke-linecap="round" transform="translate(147.064592330991 127.54360176920306) rotate(0 21.62044884810416 9.103346883412257)"><path d="M4.55 0 C13.48 0.85, 19.42 2.96, 38.69 0 C40.56 2.96, 46.67 4.3, 43.24 4.55 C43.51 7.61, 42.43 10.08, 43.24 13.66 C43.01 16.38, 42.38 14.94, 38.69 18.21 C25.99 14.26, 11.16 17.54, 4.55 18.21 C-2.06 17.71, -0.1 13.91, 0 13.66 C0.53 10.4, 0.74 10.1, 0 4.55 C0.03 -0.85, 3.22 2.76, 4.55 0" stroke="none" stroke-width="0" fill="#9c36b5"></path><path d="M4.55 0 C15.69 -0.82, 27 -0.41, 38.69 0 M4.55 0 C12.36 -0.42, 18.02 0.15, 38.69 0 M38.69 0 C42.63 -0.29, 41.53 0.23, 43.24 4.55 M38.69 0 C40.66 -0.67, 44.42 -0.75, 43.24 4.55 M43.24 4.55 C43.62 8.39, 42.93 12.11, 43.24 13.66 M43.24 4.55 C42.95 7.56, 42.94 10.21, 43.24 13.66 M43.24 13.66 C44.35 16.97, 42.69 18, 38.69 18.21 M43.24 13.66 C42.45 16.83, 42.62 16.27, 38.69 18.21 M38.69 18.21 C23.61 18.75, 12.5 18.45, 4.55 18.21 M38.69 18.21 C26.18 18.25, 12.39 17.23, 4.55 18.21 M4.55 18.21 C2.1 17.05, 1.11 15.05, 0 13.66 M4.55 18.21 C1.8 18.99, 0.21 16.7, 0 13.66 M0 13.66 C0.45 10.3, 0.13 6.95, 0 4.55 M0 13.66 C-0.35 11.61, 0.11 8.32, 0 4.55 M0 4.55 C0.1 0.57, 2.27 0.78, 4.55 0 M0 4.55 C0.84 1.06, 2.08 1.36, 4.55 0" stroke="#9c36b5" stroke-width="4" fill="none"></path></g></svg>